<?xml version="1.0" standalone="no"?>
<!DOCTYPE svg PUBLIC "-//W3C//DTD SVG 20010904//EN"
 "http://www.w3.org/TR/2001/REC-SVG-20010904/DTD/svg10.dtd">
<svg version="1.0" xmlns="http://www.w3.org/2000/svg"
 width="600.000000pt" height="600.000000pt" viewBox="0 0 600.000000 600.000000"
 preserveAspectRatio="xMidYMid meet">
<metadata>
Created by potrace 1.11, written by Peter Selinger 2001-2013
</metadata>
<g transform="translate(0.000000,600.000000) scale(0.100000,-0.100000)"
fill="#000000" stroke="none">
<path d="M2645 5984 c-1026 -123 -1914 -760 -2359 -1694 -144 -302 -232 -611
-270 -950 -21 -176 -21 -504 0 -680 118 -1035 754 -1926 1694 -2374 410 -195
820 -286 1290 -286 470 0 880 91 1290 286 777 371 1359 1055 1596 1877 130
452 151 971 59 1432 -165 823 -675 1547 -1392 1977 -376 226 -777 363 -1213
412 -169 20 -529 19 -695 0z m669 -209 c509 -60 954 -239 1376 -553 151 -113
419 -381 532 -532 381 -511 568 -1067 568 -1690 0 -623 -187 -1179 -568 -1690
-113 -151 -381 -419 -532 -532 -513 -383 -1097 -577 -1696 -566 l-161 3 307
860 308 860 33 7 c19 4 93 19 164 32 226 44 495 141 680 247 256 147 480 377
595 613 79 160 102 253 107 431 6 176 -7 248 -65 365 -52 106 -160 214 -262
263 -102 49 -182 66 -330 73 -319 15 -648 -88 -940 -294 -121 -85 -380 -342
-380 -377 0 -25 62 -85 89 -85 7 0 71 56 141 124 136 131 275 232 394 286 38
17 70 29 73 27 3 -4 -1214 -3384 -1223 -3396 -6 -7 -177 30 -297 65 -322 93
-628 247 -917 462 -151 113 -419 381 -532 532 -381 511 -568 1067 -568 1690 0
623 187 1179 568 1690 113 151 381 419 532 532 289 215 595 369 917 462 129
37 241 61 248 54 6 -6 -252 -615 -930 -2198 -261 -608 -483 -1139 -494 -1180
-42 -152 -22 -274 59 -363 76 -83 126 -102 275 -101 290 2 540 91 797 285 101
76 319 293 412 409 211 265 364 571 412 827 23 124 16 299 -15 368 -82 185
-310 235 -555 121 -192 -88 -424 -277 -603 -491 -23 -27 -45 -47 -48 -43 -4 4
927 2133 1046 2391 l12 27 171 0 c94 0 229 -7 300 -15z m1030 -2030 c156 -41
273 -173 322 -365 21 -82 21 -250 1 -346 -69 -322 -332 -617 -709 -793 -146
-69 -419 -154 -436 -137 -4 5 526 1495 574 1613 11 28 18 32 56 36 94 8 136 6
192 -8z m-1755 -52 c14 -11 36 -38 49 -61 20 -36 23 -55 23 -139 -3 -322 -210
-754 -522 -1087 -251 -268 -506 -389 -667 -316 -96 44 -108 184 -35 405 114
337 272 598 521 856 284 295 521 423 631 342z"/>
</g>
</svg>
